<?xml version="1.0" standalone="no"?>
<!DOCTYPE svg PUBLIC "-//W3C//DTD SVG 20010904//EN"
 "http://www.w3.org/TR/2001/REC-SVG-20010904/DTD/svg10.dtd">
<svg version="1.0" xmlns="http://www.w3.org/2000/svg"
 width="600.000000pt" height="600.000000pt" viewBox="0 0 600.000000 600.000000"
 preserveAspectRatio="xMidYMid meet">
<metadata>
Created by potrace 1.16, written by Peter Selinger 2001-2019
</metadata>
<g transform="translate(0.000000,600.000000) scale(0.100000,-0.100000)"
fill="#000000" stroke="none">
<path d="M1775 5424 c-611 -103 -1092 -579 -1196 -1182 -18 -107 -19 -169 -19
-1034 0 -610 3 -917 10 -913 6 3 10 1 10 -4 0 -6 8 -11 18 -11 14 0 14 2 3 9
-21 13 47 26 131 25 37 0 65 3 62 8 -5 8 23 10 164 11 l82 0 1 401 c1 221 4
633 8 916 l8 515 26 88 c83 271 257 478 504 601 81 40 176 71 258 85 37 6 481
11 1155 13 1185 3 1140 5 1307 -52 316 -108 556 -383 629 -720 11 -53 14 -264
14 -1171 0 -729 -4 -1126 -11 -1165 -70 -395 -388 -713 -784 -784 -37 -6 -347
-13 -792 -17 l-731 -6 -4 -28 c-3 -16 0 -25 5 -22 6 4 8 -5 5 -21 -3 -14 -1
-26 5 -26 6 0 7 -19 4 -48 -3 -26 -2 -38 2 -28 5 14 11 -1 17 -53 6 -39 7 -74
2 -77 -4 -3 -8 -17 -8 -32 0 -21 2 -24 10 -12 7 10 10 -7 10 -57 l0 -73 721 0
c809 0 831 1 1039 70 523 171 897 610 985 1155 13 75 15 274 15 1207 0 1167
-1 1190 -45 1364 -141 557 -633 993 -1209 1073 -123 17 -2307 13 -2411 -5z"/>
<path d="M4190 4547 c-134 -38 -212 -138 -219 -280 -3 -71 0 -84 28 -142 55
-111 151 -170 276 -169 109 1 208 64 263 169 22 42 27 63 27 130 0 67 -5 88
-27 130 -69 130 -217 199 -348 162z"/>
<path d="M2778 4244 c-258 -46 -477 -162 -668 -354 -184 -184 -292 -382 -351
-645 -9 -38 -14 -126 -14 -245 0 -171 2 -193 28 -294 64 -244 173 -434 349
-607 235 -231 550 -359 883 -359 342 0 640 125 885 370 193 193 309 414 355
677 19 109 19 316 0 425 -92 528 -505 941 -1032 1033 -106 19 -330 18 -435 -1z
m408 -494 c479 -121 724 -652 505 -1095 -131 -265 -394 -426 -696 -426 -308 0
-570 170 -700 454 -45 99 -65 196 -65 320 0 364 249 674 605 752 94 21 258 19
351 -5z"/>
</g>
</svg>
