<?xml version="1.0" standalone="no"?>
<!DOCTYPE svg PUBLIC "-//W3C//DTD SVG 20010904//EN"
 "http://www.w3.org/TR/2001/REC-SVG-20010904/DTD/svg10.dtd">
<svg version="1.0" xmlns="http://www.w3.org/2000/svg"
 width="840.000000pt" height="879.000000pt" viewBox="0 0 840.000000 879.000000"
 preserveAspectRatio="xMidYMid meet">
<metadata>
Created by potrace 1.16, written by Peter Selinger 2001-2019
</metadata>
<g transform="translate(0.000000,879.000000) scale(0.100000,-0.100000)"
fill="#000000" stroke="none">
<path d="M3830 8369 c-384 -38 -767 -132 -1115 -271 -511 -206 -937 -489
-1336 -887 -336 -337 -579 -677 -778 -1092 -217 -451 -339 -908 -382 -1424
-14 -173 -6 -602 15 -770 133 -1062 655 -1996 1486 -2660 111 -89 395 -279
527 -354 465 -263 1007 -432 1573 -493 170 -18 643 -15 810 5 509 63 916 182
1342 393 402 198 729 434 1054 758 321 322 554 645 753 1044 488 979 551 2127
173 3152 -427 1156 -1357 2048 -2529 2423 -233 75 -442 122 -728 163 -132 19
-718 28 -865 13z m-956 -1794 c144 -38 249 -121 310 -247 101 -206 50 -448
-121 -583 -179 -140 -473 -151 -662 -24 -75 50 -120 104 -163 195 -32 67 -33
73 -33 199 0 126 1 132 32 198 60 127 177 223 319 262 68 18 246 19 318 0z
m2855 -1285 c358 -95 605 -346 710 -721 55 -200 54 -172 58 -1167 l4 -922
-463 2 -463 3 -5 845 c-6 939 -2 887 -75 1037 -54 109 -149 185 -267 213 -61
14 -184 12 -243 -4 -158 -42 -297 -177 -358 -349 -8 -23 -13 -282 -17 -887
l-5 -855 -460 0 -460 0 0 1387 0 1388 463 0 462 0 0 -191 0 -191 46 63 c113
154 271 272 440 328 132 44 179 50 374 47 141 -3 191 -8 259 -26z m-2551
-1417 l-3 -1388 -462 -3 -463 -2 0 1390 0 1390 465 0 465 0 -2 -1387z"/>
</g>
</svg>
